<mxfile host="app.diagrams.net" modified="2023-04-30T13:44:56.692Z" agent="Mozilla/5.0 (Macintosh; Intel Mac OS X 10_15_7) AppleWebKit/537.36 (KHTML, like Gecko) Chrome/112.0.0.0 Safari/537.36" etag="9QyrbE8AQT3Zydh7dOJB" version="21.1.8" type="github">
  <diagram id="C5RBs43oDa-KdzZeNtuy" name="Page-1">
    <mxGraphModel dx="727" dy="401" grid="1" gridSize="10" guides="1" tooltips="1" connect="1" arrows="1" fold="1" page="1" pageScale="1" pageWidth="827" pageHeight="1169" math="0" shadow="0">
      <root>
        <mxCell id="WIyWlLk6GJQsqaUBKTNV-0" />
        <mxCell id="WIyWlLk6GJQsqaUBKTNV-1" parent="WIyWlLk6GJQsqaUBKTNV-0" />
        <mxCell id="zMpYF5B8KSEeU2nSLcIA-8" value="StorageUnit" style="swimlane;fontStyle=1;align=center;verticalAlign=top;childLayout=stackLayout;horizontal=1;startSize=26;horizontalStack=0;resizeParent=1;resizeParentMax=0;resizeLast=0;collapsible=1;marginBottom=0;whiteSpace=wrap;html=1;" parent="WIyWlLk6GJQsqaUBKTNV-1" vertex="1">
          <mxGeometry x="174" y="690" width="160" height="30" as="geometry" />
        </mxCell>
        <mxCell id="VhmcF22pDkBif8iSbu52-0" value="Branch" style="swimlane;fontStyle=1;align=center;verticalAlign=top;childLayout=stackLayout;horizontal=1;startSize=26;horizontalStack=0;resizeParent=1;resizeParentMax=0;resizeLast=0;collapsible=1;marginBottom=0;whiteSpace=wrap;html=1;" parent="WIyWlLk6GJQsqaUBKTNV-1" vertex="1">
          <mxGeometry x="314" y="480" width="180" height="100" as="geometry" />
        </mxCell>
        <mxCell id="VhmcF22pDkBif8iSbu52-1" value="+ Address : String&lt;br&gt;+ id : int&lt;br&gt;&lt;u&gt;+ BACKSTART : int = 1000&lt;br&gt;+ BACKEND: int = 2000&lt;/u&gt;" style="text;strokeColor=none;fillColor=none;align=left;verticalAlign=top;spacingLeft=4;spacingRight=4;overflow=hidden;rotatable=0;points=[[0,0.5],[1,0.5]];portConstraint=eastwest;whiteSpace=wrap;html=1;" parent="VhmcF22pDkBif8iSbu52-0" vertex="1">
          <mxGeometry y="26" width="180" height="74" as="geometry" />
        </mxCell>
        <mxCell id="VhmcF22pDkBif8iSbu52-8" value="IS A" style="endArrow=block;endSize=16;endFill=0;html=1;rounded=0;exitX=1.003;exitY=0.497;exitDx=0;exitDy=0;exitPerimeter=0;entryX=0.5;entryY=1;entryDx=0;entryDy=0;" parent="WIyWlLk6GJQsqaUBKTNV-1" source="VhmcF22pDkBif8iSbu52-18" target="zMpYF5B8KSEeU2nSLcIA-8" edge="1">
          <mxGeometry width="160" relative="1" as="geometry">
            <mxPoint x="254" y="830" as="sourcePoint" />
            <mxPoint x="254.0054560334636" y="750" as="targetPoint" />
          </mxGeometry>
        </mxCell>
        <mxCell id="VhmcF22pDkBif8iSbu52-9" value="StoreShelves" style="swimlane;fontStyle=1;align=center;verticalAlign=top;childLayout=stackLayout;horizontal=1;startSize=26;horizontalStack=0;resizeParent=1;resizeParentMax=0;resizeLast=0;collapsible=1;marginBottom=0;whiteSpace=wrap;html=1;" parent="WIyWlLk6GJQsqaUBKTNV-1" vertex="1">
          <mxGeometry x="54" y="830" width="160" height="30" as="geometry" />
        </mxCell>
        <mxCell id="VhmcF22pDkBif8iSbu52-13" value="BackStorage" style="swimlane;fontStyle=1;align=center;verticalAlign=top;childLayout=stackLayout;horizontal=1;startSize=26;horizontalStack=0;resizeParent=1;resizeParentMax=0;resizeLast=0;collapsible=1;marginBottom=0;whiteSpace=wrap;html=1;" parent="WIyWlLk6GJQsqaUBKTNV-1" vertex="1">
          <mxGeometry x="274" y="830" width="160" height="30" as="geometry" />
        </mxCell>
        <mxCell id="VhmcF22pDkBif8iSbu52-17" value="" style="line;strokeWidth=1;fillColor=none;align=left;verticalAlign=middle;spacingTop=-1;spacingLeft=3;spacingRight=3;rotatable=0;labelPosition=right;points=[];portConstraint=eastwest;strokeColor=inherit;" parent="WIyWlLk6GJQsqaUBKTNV-1" vertex="1">
          <mxGeometry x="254" y="830" width="20" height="8" as="geometry" />
        </mxCell>
        <mxCell id="VhmcF22pDkBif8iSbu52-18" value="" style="line;strokeWidth=1;fillColor=none;align=left;verticalAlign=middle;spacingTop=-1;spacingLeft=3;spacingRight=3;rotatable=0;labelPosition=right;points=[];portConstraint=eastwest;strokeColor=inherit;" parent="WIyWlLk6GJQsqaUBKTNV-1" vertex="1">
          <mxGeometry x="214" y="830" width="40" height="8" as="geometry" />
        </mxCell>
        <mxCell id="VhmcF22pDkBif8iSbu52-23" value="" style="endArrow=diamondThin;endFill=1;endSize=24;html=1;rounded=0;exitX=0.5;exitY=0;exitDx=0;exitDy=0;entryX=0.213;entryY=1.046;entryDx=0;entryDy=0;entryPerimeter=0;" parent="WIyWlLk6GJQsqaUBKTNV-1" source="VhmcF22pDkBif8iSbu52-13" target="VhmcF22pDkBif8iSbu52-1" edge="1">
          <mxGeometry width="160" relative="1" as="geometry">
            <mxPoint x="404" y="690" as="sourcePoint" />
            <mxPoint x="353.05999999999995" y="577" as="targetPoint" />
          </mxGeometry>
        </mxCell>
        <mxCell id="VhmcF22pDkBif8iSbu52-25" value="1" style="edgeLabel;html=1;align=center;verticalAlign=middle;resizable=0;points=[];" parent="VhmcF22pDkBif8iSbu52-23" connectable="0" vertex="1">
          <mxGeometry x="-0.8591" y="-2" relative="1" as="geometry">
            <mxPoint x="-7" y="10" as="offset" />
          </mxGeometry>
        </mxCell>
        <mxCell id="fHVGCS-6Fuo540F0FU7E-12" value="&lt;font style=&quot;font-size: 8px;&quot;&gt;Found In&lt;/font&gt;" style="edgeLabel;html=1;align=center;verticalAlign=middle;resizable=0;points=[];" parent="VhmcF22pDkBif8iSbu52-23" connectable="0" vertex="1">
          <mxGeometry x="-0.9317" y="-1" relative="1" as="geometry">
            <mxPoint x="20" y="1" as="offset" />
          </mxGeometry>
        </mxCell>
        <mxCell id="fHVGCS-6Fuo540F0FU7E-13" value="&lt;font style=&quot;font-size: 8px;&quot;&gt;Contains&lt;/font&gt;" style="edgeLabel;html=1;align=center;verticalAlign=middle;resizable=0;points=[];" parent="VhmcF22pDkBif8iSbu52-23" connectable="0" vertex="1">
          <mxGeometry x="0.761" relative="1" as="geometry">
            <mxPoint x="16" as="offset" />
          </mxGeometry>
        </mxCell>
        <mxCell id="VhmcF22pDkBif8iSbu52-24" value="" style="endArrow=diamondThin;endFill=1;endSize=24;html=1;rounded=0;exitX=0.375;exitY=-0.041;exitDx=0;exitDy=0;exitPerimeter=0;entryX=-0.017;entryY=-0.019;entryDx=0;entryDy=0;entryPerimeter=0;" parent="WIyWlLk6GJQsqaUBKTNV-1" source="VhmcF22pDkBif8iSbu52-9" target="VhmcF22pDkBif8iSbu52-1" edge="1">
          <mxGeometry width="160" relative="1" as="geometry">
            <mxPoint x="354" y="830" as="sourcePoint" />
            <mxPoint x="314" y="610" as="targetPoint" />
            <Array as="points">
              <mxPoint x="114" y="710" />
              <mxPoint x="114" y="670" />
              <mxPoint x="114" y="506" />
              <mxPoint x="244" y="506" />
            </Array>
          </mxGeometry>
        </mxCell>
        <mxCell id="VhmcF22pDkBif8iSbu52-26" value="1" style="edgeLabel;html=1;align=center;verticalAlign=middle;resizable=0;points=[];" parent="VhmcF22pDkBif8iSbu52-24" connectable="0" vertex="1">
          <mxGeometry x="-0.9375" y="-3" relative="1" as="geometry">
            <mxPoint x="1" y="9" as="offset" />
          </mxGeometry>
        </mxCell>
        <mxCell id="VhmcF22pDkBif8iSbu52-31" value="Category" style="swimlane;fontStyle=1;align=center;verticalAlign=top;childLayout=stackLayout;horizontal=1;startSize=26;horizontalStack=0;resizeParent=1;resizeParentMax=0;resizeLast=0;collapsible=1;marginBottom=0;whiteSpace=wrap;html=1;" parent="WIyWlLk6GJQsqaUBKTNV-1" vertex="1">
          <mxGeometry x="278" y="920" width="160" height="60" as="geometry" />
        </mxCell>
        <mxCell id="VhmcF22pDkBif8iSbu52-32" value="+ categories : String [0..*]" style="text;strokeColor=none;fillColor=none;align=left;verticalAlign=top;spacingLeft=4;spacingRight=4;overflow=hidden;rotatable=0;points=[[0,0.5],[1,0.5]];portConstraint=eastwest;whiteSpace=wrap;html=1;" parent="VhmcF22pDkBif8iSbu52-31" vertex="1">
          <mxGeometry y="26" width="160" height="34" as="geometry" />
        </mxCell>
        <mxCell id="VhmcF22pDkBif8iSbu52-35" value="Discount" style="swimlane;fontStyle=1;align=center;verticalAlign=top;childLayout=stackLayout;horizontal=1;startSize=26;horizontalStack=0;resizeParent=1;resizeParentMax=0;resizeLast=0;collapsible=1;marginBottom=0;whiteSpace=wrap;html=1;" parent="WIyWlLk6GJQsqaUBKTNV-1" vertex="1">
          <mxGeometry x="588" y="920" width="210" height="100" as="geometry">
            <mxRectangle x="330" y="499" width="90" height="30" as="alternateBounds" />
          </mxGeometry>
        </mxCell>
        <mxCell id="VhmcF22pDkBif8iSbu52-36" value="+ expirationDate : DateTime&lt;br&gt;+ value : double&lt;br&gt;+ isPercentage : Boolean&lt;br&gt;+ minCapacity : int" style="text;strokeColor=none;fillColor=none;align=left;verticalAlign=top;spacingLeft=4;spacingRight=4;overflow=hidden;rotatable=0;points=[[0,0.5],[1,0.5]];portConstraint=eastwest;whiteSpace=wrap;html=1;" parent="VhmcF22pDkBif8iSbu52-35" vertex="1">
          <mxGeometry y="26" width="210" height="74" as="geometry" />
        </mxCell>
        <mxCell id="VhmcF22pDkBif8iSbu52-52" value="Item" style="swimlane;fontStyle=1;align=center;verticalAlign=top;childLayout=stackLayout;horizontal=1;startSize=26;horizontalStack=0;resizeParent=1;resizeParentMax=0;resizeLast=0;collapsible=1;marginBottom=0;whiteSpace=wrap;html=1;" parent="WIyWlLk6GJQsqaUBKTNV-1" vertex="1">
          <mxGeometry x="630" y="360" width="190" height="110" as="geometry" />
        </mxCell>
        <mxCell id="VhmcF22pDkBif8iSbu52-53" value="+ barcode : int&lt;br&gt;+ cost_price : double&lt;br style=&quot;border-color: var(--border-color);&quot;&gt;+ expiration_date : LocalDate&lt;br style=&quot;border-color: var(--border-color);&quot;&gt;+ damage_type : DamageType&lt;span style=&quot;background-color: rgb(255, 255, 255);&quot;&gt;&lt;br&gt;&lt;/span&gt;+ location : int&lt;br&gt;" style="text;strokeColor=none;fillColor=none;align=left;verticalAlign=top;spacingLeft=4;spacingRight=4;overflow=hidden;rotatable=0;points=[[0,0.5],[1,0.5]];portConstraint=eastwest;whiteSpace=wrap;html=1;" parent="VhmcF22pDkBif8iSbu52-52" vertex="1">
          <mxGeometry y="26" width="190" height="84" as="geometry" />
        </mxCell>
        <mxCell id="ki7JC-JaJUm7RhWlzLma-9" value="" style="endArrow=diamondThin;endFill=1;endSize=24;html=1;rounded=0;exitX=0.019;exitY=1.008;exitDx=0;exitDy=0;entryX=1;entryY=0;entryDx=0;entryDy=0;exitPerimeter=0;" parent="WIyWlLk6GJQsqaUBKTNV-1" source="VhmcF22pDkBif8iSbu52-53" target="zMpYF5B8KSEeU2nSLcIA-8" edge="1">
          <mxGeometry width="160" relative="1" as="geometry">
            <mxPoint x="621" y="753" as="sourcePoint" />
            <mxPoint x="564" y="660" as="targetPoint" />
            <Array as="points">
              <mxPoint x="634" y="640" />
              <mxPoint x="394" y="640" />
              <mxPoint x="374" y="640" />
              <mxPoint x="354" y="640" />
              <mxPoint x="334" y="640" />
            </Array>
          </mxGeometry>
        </mxCell>
        <mxCell id="ki7JC-JaJUm7RhWlzLma-10" value="*" style="edgeLabel;html=1;align=center;verticalAlign=middle;resizable=0;points=[];" parent="ki7JC-JaJUm7RhWlzLma-9" connectable="0" vertex="1">
          <mxGeometry x="-0.9375" y="-3" relative="1" as="geometry">
            <mxPoint x="-2" y="-3" as="offset" />
          </mxGeometry>
        </mxCell>
        <mxCell id="fHVGCS-6Fuo540F0FU7E-20" value="&lt;font style=&quot;font-size: 8px;&quot;&gt;Include&lt;/font&gt;" style="edgeLabel;html=1;align=center;verticalAlign=middle;resizable=0;points=[];" parent="ki7JC-JaJUm7RhWlzLma-9" connectable="0" vertex="1">
          <mxGeometry x="-0.8692" y="-1" relative="1" as="geometry">
            <mxPoint x="-307" y="140" as="offset" />
          </mxGeometry>
        </mxCell>
        <mxCell id="ki7JC-JaJUm7RhWlzLma-25" value="&lt;b&gt;Size&lt;/b&gt;" style="swimlane;fontStyle=0;childLayout=stackLayout;horizontal=1;startSize=26;fillColor=none;horizontalStack=0;resizeParent=1;resizeParentMax=0;resizeLast=0;collapsible=1;marginBottom=0;whiteSpace=wrap;html=1;" parent="WIyWlLk6GJQsqaUBKTNV-1" vertex="1">
          <mxGeometry x="48" y="920" width="130" height="70" as="geometry" />
        </mxCell>
        <mxCell id="fHVGCS-6Fuo540F0FU7E-14" value="&lt;font style=&quot;font-size: 8px;&quot;&gt;Contains&lt;/font&gt;" style="edgeLabel;html=1;align=center;verticalAlign=middle;resizable=0;points=[];" parent="WIyWlLk6GJQsqaUBKTNV-1" connectable="0" vertex="1">
          <mxGeometry x="269.99837687054736" y="513.003255924926" as="geometry" />
        </mxCell>
        <mxCell id="fHVGCS-6Fuo540F0FU7E-15" value="&lt;font style=&quot;font-size: 8px;&quot;&gt;Found In&lt;/font&gt;" style="edgeLabel;html=1;align=center;verticalAlign=middle;resizable=0;points=[];" parent="WIyWlLk6GJQsqaUBKTNV-1" connectable="0" vertex="1">
          <mxGeometry x="95.00327825220626" y="822.0032376707616" as="geometry" />
        </mxCell>
        <mxCell id="fHVGCS-6Fuo540F0FU7E-22" value="&lt;font style=&quot;font-size: 8px;&quot;&gt;Presented&lt;/font&gt;" style="edgeLabel;html=1;align=center;verticalAlign=middle;resizable=0;points=[];" parent="WIyWlLk6GJQsqaUBKTNV-1" connectable="0" vertex="1">
          <mxGeometry x="620.0043902439024" y="499.9999999999999" as="geometry">
            <mxPoint x="5" y="68" as="offset" />
          </mxGeometry>
        </mxCell>
        <mxCell id="ki7JC-JaJUm7RhWlzLma-27" value="+ amount : double&lt;span style=&quot;&quot;&gt; &lt;br&gt;+ type :&amp;nbsp;&lt;/span&gt;MeasureUnit" style="text;strokeColor=none;fillColor=none;align=left;verticalAlign=top;spacingLeft=4;spacingRight=4;overflow=hidden;rotatable=0;points=[[0,0.5],[1,0.5]];portConstraint=eastwest;whiteSpace=wrap;html=1;" parent="WIyWlLk6GJQsqaUBKTNV-1" vertex="1">
          <mxGeometry x="48" y="946" width="130" height="44" as="geometry" />
        </mxCell>
        <mxCell id="qU4-dRt0aVYh2P9HmvCY-15" value="" style="endArrow=diamondThin;endFill=0;endSize=24;html=1;rounded=0;entryX=1;entryY=1;entryDx=0;entryDy=0;exitX=0;exitY=0;exitDx=0;exitDy=0;" parent="WIyWlLk6GJQsqaUBKTNV-1" source="VhmcF22pDkBif8iSbu52-52" target="9vg_7uP11k49zYVhbG7L-28" edge="1">
          <mxGeometry width="160" relative="1" as="geometry">
            <mxPoint x="574" y="412" as="sourcePoint" />
            <mxPoint x="360" y="291" as="targetPoint" />
            <Array as="points">
              <mxPoint x="630" y="230" />
            </Array>
          </mxGeometry>
        </mxCell>
        <mxCell id="9vg_7uP11k49zYVhbG7L-37" value="*" style="edgeLabel;html=1;align=center;verticalAlign=middle;resizable=0;points=[];" parent="qU4-dRt0aVYh2P9HmvCY-15" vertex="1" connectable="0">
          <mxGeometry x="-0.8424" y="-2" relative="1" as="geometry">
            <mxPoint x="5" y="10" as="offset" />
          </mxGeometry>
        </mxCell>
        <mxCell id="9vg_7uP11k49zYVhbG7L-39" value="0..1" style="edgeLabel;html=1;align=center;verticalAlign=middle;resizable=0;points=[];" parent="qU4-dRt0aVYh2P9HmvCY-15" vertex="1" connectable="0">
          <mxGeometry x="0.8204" y="-1" relative="1" as="geometry">
            <mxPoint x="12" y="-8" as="offset" />
          </mxGeometry>
        </mxCell>
        <mxCell id="qU4-dRt0aVYh2P9HmvCY-21" value="&lt;font style=&quot;font-size: 9px;&quot;&gt;1&lt;/font&gt;" style="text;html=1;align=center;verticalAlign=middle;resizable=0;points=[];autosize=1;strokeColor=none;fillColor=none;" parent="WIyWlLk6GJQsqaUBKTNV-1" vertex="1">
          <mxGeometry x="167" y="924" width="30" height="30" as="geometry" />
        </mxCell>
        <mxCell id="qU4-dRt0aVYh2P9HmvCY-25" value="" style="endArrow=diamondThin;endFill=1;endSize=24;html=1;rounded=0;" parent="WIyWlLk6GJQsqaUBKTNV-1" edge="1">
          <mxGeometry width="160" relative="1" as="geometry">
            <mxPoint x="118" y="946" as="sourcePoint" />
            <mxPoint x="278" y="946" as="targetPoint" />
          </mxGeometry>
        </mxCell>
        <mxCell id="qU4-dRt0aVYh2P9HmvCY-26" value="&lt;font style=&quot;font-size: 8px;&quot;&gt;&lt;b&gt;Category Size&lt;/b&gt;&lt;/font&gt;" style="edgeLabel;html=1;align=center;verticalAlign=middle;resizable=0;points=[];fontSize=8;" parent="qU4-dRt0aVYh2P9HmvCY-25" connectable="0" vertex="1">
          <mxGeometry x="0.302" relative="1" as="geometry">
            <mxPoint x="-3" as="offset" />
          </mxGeometry>
        </mxCell>
        <mxCell id="9vg_7uP11k49zYVhbG7L-6" style="edgeStyle=orthogonalEdgeStyle;rounded=0;orthogonalLoop=1;jettySize=auto;html=1;exitX=-0.018;exitY=0.988;exitDx=0;exitDy=0;entryX=1;entryY=0;entryDx=0;entryDy=0;exitPerimeter=0;endArrow=open;endFill=0;" parent="WIyWlLk6GJQsqaUBKTNV-1" source="uNGU3R2hRm0RpNUcbInG-2" target="VhmcF22pDkBif8iSbu52-31" edge="1">
          <mxGeometry relative="1" as="geometry">
            <Array as="points">
              <mxPoint x="460" y="847" />
              <mxPoint x="460" y="920" />
            </Array>
          </mxGeometry>
        </mxCell>
        <mxCell id="9vg_7uP11k49zYVhbG7L-7" value="1" style="edgeLabel;html=1;align=center;verticalAlign=middle;resizable=0;points=[];" parent="9vg_7uP11k49zYVhbG7L-6" vertex="1" connectable="0">
          <mxGeometry x="0.7151" y="1" relative="1" as="geometry">
            <mxPoint x="-13" y="11" as="offset" />
          </mxGeometry>
        </mxCell>
        <mxCell id="9vg_7uP11k49zYVhbG7L-8" value="1..*" style="edgeLabel;html=1;align=center;verticalAlign=middle;resizable=0;points=[];" parent="9vg_7uP11k49zYVhbG7L-6" vertex="1" connectable="0">
          <mxGeometry x="-0.815" y="2" relative="1" as="geometry">
            <mxPoint y="-10" as="offset" />
          </mxGeometry>
        </mxCell>
        <mxCell id="9vg_7uP11k49zYVhbG7L-9" value="&lt;b&gt;&lt;font style=&quot;font-size: 9px;&quot;&gt;Belong to&lt;/font&gt;&lt;/b&gt;" style="edgeLabel;html=1;align=center;verticalAlign=middle;resizable=0;points=[];" parent="9vg_7uP11k49zYVhbG7L-6" vertex="1" connectable="0">
          <mxGeometry x="0.345" y="2" relative="1" as="geometry">
            <mxPoint x="-10" as="offset" />
          </mxGeometry>
        </mxCell>
        <mxCell id="9vg_7uP11k49zYVhbG7L-10" style="edgeStyle=orthogonalEdgeStyle;rounded=0;orthogonalLoop=1;jettySize=auto;html=1;exitX=1;exitY=1;exitDx=0;exitDy=0;entryX=0.25;entryY=0;entryDx=0;entryDy=0;endArrow=open;endFill=0;" parent="WIyWlLk6GJQsqaUBKTNV-1" source="uNGU3R2hRm0RpNUcbInG-1" target="VhmcF22pDkBif8iSbu52-35" edge="1">
          <mxGeometry relative="1" as="geometry">
            <Array as="points">
              <mxPoint x="641" y="849" />
              <mxPoint x="641" y="884" />
            </Array>
          </mxGeometry>
        </mxCell>
        <mxCell id="9vg_7uP11k49zYVhbG7L-11" value="0...1" style="edgeLabel;html=1;align=center;verticalAlign=middle;resizable=0;points=[];" parent="9vg_7uP11k49zYVhbG7L-10" vertex="1" connectable="0">
          <mxGeometry x="0.4086" y="2" relative="1" as="geometry">
            <mxPoint x="16" y="6" as="offset" />
          </mxGeometry>
        </mxCell>
        <mxCell id="uNGU3R2hRm0RpNUcbInG-1" value="&lt;b&gt;CatalogItem&lt;/b&gt;" style="swimlane;fontStyle=0;childLayout=stackLayout;horizontal=1;startSize=26;fillColor=none;horizontalStack=0;resizeParent=1;resizeParentMax=0;resizeLast=0;collapsible=1;marginBottom=0;whiteSpace=wrap;html=1;" parent="WIyWlLk6GJQsqaUBKTNV-1" vertex="1">
          <mxGeometry x="510" y="679" width="140" height="170" as="geometry" />
        </mxCell>
        <mxCell id="uNGU3R2hRm0RpNUcbInG-2" value="+ id : int&lt;br&gt;+ name : String&lt;br&gt;+ manufacturer : String&lt;br style=&quot;border-color: var(--border-color);&quot;&gt;+ sell_price : double&lt;br style=&quot;border-color: var(--border-color);&quot;&gt;+ min_capacity : int&lt;br&gt;+ shelves_amount : int&lt;br&gt;+ back_amount : int&lt;br&gt;+ shelves_location : int&lt;br&gt;+ back_location : int" style="text;strokeColor=none;fillColor=none;align=left;verticalAlign=top;spacingLeft=4;spacingRight=4;overflow=hidden;rotatable=0;points=[[0,0.5],[1,0.5]];portConstraint=eastwest;whiteSpace=wrap;html=1;" parent="uNGU3R2hRm0RpNUcbInG-1" vertex="1">
          <mxGeometry y="26" width="140" height="144" as="geometry" />
        </mxCell>
        <mxCell id="9vg_7uP11k49zYVhbG7L-0" value="" style="endArrow=open;html=1;rounded=0;endFill=0;entryX=1;entryY=0;entryDx=0;entryDy=0;exitX=0.098;exitY=1.005;exitDx=0;exitDy=0;exitPerimeter=0;" parent="WIyWlLk6GJQsqaUBKTNV-1" source="VhmcF22pDkBif8iSbu52-53" target="uNGU3R2hRm0RpNUcbInG-1" edge="1">
          <mxGeometry width="50" height="50" relative="1" as="geometry">
            <mxPoint x="650" y="480" as="sourcePoint" />
            <mxPoint x="690" y="510" as="targetPoint" />
            <Array as="points" />
          </mxGeometry>
        </mxCell>
        <mxCell id="9vg_7uP11k49zYVhbG7L-2" value="1" style="edgeLabel;html=1;align=center;verticalAlign=middle;resizable=0;points=[];" parent="9vg_7uP11k49zYVhbG7L-0" vertex="1" connectable="0">
          <mxGeometry x="0.7889" relative="1" as="geometry">
            <mxPoint x="8" y="3" as="offset" />
          </mxGeometry>
        </mxCell>
        <mxCell id="9vg_7uP11k49zYVhbG7L-4" value="instance of" style="edgeLabel;html=1;align=center;verticalAlign=middle;resizable=0;points=[];" parent="9vg_7uP11k49zYVhbG7L-0" vertex="1" connectable="0">
          <mxGeometry x="-0.7587" y="1" relative="1" as="geometry">
            <mxPoint x="29" y="81" as="offset" />
          </mxGeometry>
        </mxCell>
        <mxCell id="9vg_7uP11k49zYVhbG7L-12" value="1..*" style="edgeLabel;html=1;align=center;verticalAlign=middle;resizable=0;points=[];" parent="WIyWlLk6GJQsqaUBKTNV-1" vertex="1" connectable="0">
          <mxGeometry x="522.0889854816776" y="857.9115207242783" as="geometry">
            <mxPoint x="128" y="1" as="offset" />
          </mxGeometry>
        </mxCell>
        <mxCell id="9vg_7uP11k49zYVhbG7L-13" value="&lt;b&gt;&lt;font style=&quot;font-size: 9px;&quot;&gt;holds&lt;/font&gt;&lt;/b&gt;" style="edgeLabel;html=1;align=center;verticalAlign=middle;resizable=0;points=[];" parent="WIyWlLk6GJQsqaUBKTNV-1" vertex="1" connectable="0">
          <mxGeometry x="635" y="884.0927271960431" as="geometry" />
        </mxCell>
        <mxCell id="9vg_7uP11k49zYVhbG7L-18" value="&amp;lt;&amp;lt;enum&amp;gt;&amp;gt;&lt;br&gt;DamageType" style="swimlane;fontStyle=0;childLayout=stackLayout;horizontal=1;startSize=26;fillColor=none;horizontalStack=0;resizeParent=1;resizeParentMax=0;resizeLast=0;collapsible=1;marginBottom=0;whiteSpace=wrap;html=1;" parent="WIyWlLk6GJQsqaUBKTNV-1" vertex="1">
          <mxGeometry x="700" y="1050" width="120" height="110" as="geometry">
            <mxRectangle x="615" y="787" width="120" height="40" as="alternateBounds" />
          </mxGeometry>
        </mxCell>
        <mxCell id="9vg_7uP11k49zYVhbG7L-19" value="&lt;font style=&quot;font-size: 12px;&quot;&gt;- None&lt;br&gt;- Cover&lt;br&gt;- Physical&lt;br&gt;- Electrical&lt;br&gt;- Rotten&lt;/font&gt;" style="text;strokeColor=none;fillColor=none;align=left;verticalAlign=top;spacingLeft=4;spacingRight=4;overflow=hidden;rotatable=0;points=[[0,0.5],[1,0.5]];portConstraint=eastwest;whiteSpace=wrap;html=1;" parent="9vg_7uP11k49zYVhbG7L-18" vertex="1">
          <mxGeometry y="26" width="120" height="84" as="geometry" />
        </mxCell>
        <mxCell id="9vg_7uP11k49zYVhbG7L-20" value="&amp;lt;&amp;lt;enum&amp;gt;&amp;gt;&lt;br style=&quot;border-color: var(--border-color);&quot;&gt;MeasureUnit" style="swimlane;fontStyle=0;childLayout=stackLayout;horizontal=1;startSize=26;fillColor=none;horizontalStack=0;resizeParent=1;resizeParentMax=0;resizeLast=0;collapsible=1;marginBottom=0;whiteSpace=wrap;html=1;" parent="WIyWlLk6GJQsqaUBKTNV-1" vertex="1">
          <mxGeometry x="513" y="1052" width="140" height="100" as="geometry" />
        </mxCell>
        <mxCell id="9vg_7uP11k49zYVhbG7L-21" value="- Unit&lt;br&gt;- GM&lt;br&gt;- ML&lt;br&gt;- CM" style="text;strokeColor=none;fillColor=none;align=left;verticalAlign=top;spacingLeft=4;spacingRight=4;overflow=hidden;rotatable=0;points=[[0,0.5],[1,0.5]];portConstraint=eastwest;whiteSpace=wrap;html=1;" parent="9vg_7uP11k49zYVhbG7L-20" vertex="1">
          <mxGeometry y="26" width="140" height="74" as="geometry" />
        </mxCell>
        <mxCell id="9vg_7uP11k49zYVhbG7L-23" value="AReport" style="swimlane;fontStyle=1;align=center;verticalAlign=top;childLayout=stackLayout;horizontal=1;startSize=26;horizontalStack=0;resizeParent=1;resizeParentMax=0;resizeLast=0;collapsible=1;marginBottom=0;whiteSpace=wrap;html=1;" parent="WIyWlLk6GJQsqaUBKTNV-1" vertex="1">
          <mxGeometry x="99" y="100" width="200" height="40" as="geometry" />
        </mxCell>
        <mxCell id="9vg_7uP11k49zYVhbG7L-28" value="&lt;b&gt;AItemReport&lt;/b&gt;" style="swimlane;fontStyle=0;childLayout=stackLayout;horizontal=1;startSize=26;fillColor=none;horizontalStack=0;resizeParent=1;resizeParentMax=0;resizeLast=0;collapsible=1;marginBottom=0;whiteSpace=wrap;html=1;" parent="WIyWlLk6GJQsqaUBKTNV-1" vertex="1">
          <mxGeometry x="390" y="200" width="140" height="30" as="geometry" />
        </mxCell>
        <mxCell id="9vg_7uP11k49zYVhbG7L-32" value="&lt;b&gt;ACatalogReport&lt;/b&gt;" style="swimlane;fontStyle=0;childLayout=stackLayout;horizontal=1;startSize=26;fillColor=none;horizontalStack=0;resizeParent=1;resizeParentMax=0;resizeLast=0;collapsible=1;marginBottom=0;whiteSpace=wrap;html=1;" parent="WIyWlLk6GJQsqaUBKTNV-1" vertex="1">
          <mxGeometry x="40" y="200" width="140" height="30" as="geometry" />
        </mxCell>
        <mxCell id="9vg_7uP11k49zYVhbG7L-41" value="" style="group" parent="WIyWlLk6GJQsqaUBKTNV-1" vertex="1" connectable="0">
          <mxGeometry x="198" y="140" width="2" height="60" as="geometry" />
        </mxCell>
        <mxCell id="9vg_7uP11k49zYVhbG7L-27" value="IS A" style="endArrow=block;endSize=16;endFill=0;html=1;rounded=0;entryX=0.5;entryY=1;entryDx=0;entryDy=0;" parent="9vg_7uP11k49zYVhbG7L-41" edge="1">
          <mxGeometry width="160" relative="1" as="geometry">
            <mxPoint y="60" as="sourcePoint" />
            <mxPoint as="targetPoint" />
          </mxGeometry>
        </mxCell>
        <mxCell id="9vg_7uP11k49zYVhbG7L-36" style="edgeStyle=orthogonalEdgeStyle;rounded=0;orthogonalLoop=1;jettySize=auto;html=1;exitX=1;exitY=0;exitDx=0;exitDy=0;entryX=0;entryY=0;entryDx=0;entryDy=0;endArrow=none;endFill=0;" parent="9vg_7uP11k49zYVhbG7L-41" source="9vg_7uP11k49zYVhbG7L-32" target="9vg_7uP11k49zYVhbG7L-28" edge="1">
          <mxGeometry relative="1" as="geometry">
            <Array as="points">
              <mxPoint x="2" y="60" />
              <mxPoint x="2" y="60" />
            </Array>
          </mxGeometry>
        </mxCell>
        <mxCell id="9vg_7uP11k49zYVhbG7L-42" value="" style="group" parent="WIyWlLk6GJQsqaUBKTNV-1" vertex="1" connectable="0">
          <mxGeometry x="110" y="230" width="2" height="90" as="geometry" />
        </mxCell>
        <mxCell id="9vg_7uP11k49zYVhbG7L-43" value="IS A" style="endArrow=block;endSize=16;endFill=0;html=1;rounded=0;entryX=0.5;entryY=1;entryDx=0;entryDy=0;" parent="9vg_7uP11k49zYVhbG7L-42" edge="1">
          <mxGeometry width="160" relative="1" as="geometry">
            <mxPoint y="90" as="sourcePoint" />
            <mxPoint as="targetPoint" />
          </mxGeometry>
        </mxCell>
        <mxCell id="9vg_7uP11k49zYVhbG7L-44" style="edgeStyle=orthogonalEdgeStyle;rounded=0;orthogonalLoop=1;jettySize=auto;html=1;exitX=1;exitY=0;exitDx=0;exitDy=0;entryX=0;entryY=0;entryDx=0;entryDy=0;endArrow=none;endFill=0;" parent="9vg_7uP11k49zYVhbG7L-42" edge="1">
          <mxGeometry relative="1" as="geometry">
            <Array as="points">
              <mxPoint x="2" y="90" />
              <mxPoint x="2" y="90" />
            </Array>
          </mxGeometry>
        </mxCell>
        <mxCell id="9vg_7uP11k49zYVhbG7L-48" value="&lt;b&gt;AllCatalogReport&lt;/b&gt;" style="swimlane;fontStyle=0;childLayout=stackLayout;horizontal=1;startSize=26;fillColor=none;horizontalStack=0;resizeParent=1;resizeParentMax=0;resizeLast=0;collapsible=1;marginBottom=0;whiteSpace=wrap;html=1;" parent="WIyWlLk6GJQsqaUBKTNV-1" vertex="1">
          <mxGeometry x="150" y="410" width="150" height="30" as="geometry" />
        </mxCell>
        <mxCell id="9vg_7uP11k49zYVhbG7L-52" value="&lt;b&gt;RequiredStockReport&lt;/b&gt;" style="swimlane;fontStyle=0;childLayout=stackLayout;horizontal=1;startSize=26;fillColor=none;horizontalStack=0;resizeParent=1;resizeParentMax=0;resizeLast=0;collapsible=1;marginBottom=0;whiteSpace=wrap;html=1;" parent="WIyWlLk6GJQsqaUBKTNV-1" vertex="1">
          <mxGeometry x="150" y="360" width="150" height="30" as="geometry" />
        </mxCell>
        <mxCell id="9vg_7uP11k49zYVhbG7L-56" value="" style="group;rotation=0;" parent="WIyWlLk6GJQsqaUBKTNV-1" vertex="1" connectable="0">
          <mxGeometry x="466" y="231" width="2" height="89" as="geometry" />
        </mxCell>
        <mxCell id="9vg_7uP11k49zYVhbG7L-57" value="IS A" style="endArrow=block;endSize=16;endFill=0;html=1;rounded=0;entryX=0.5;entryY=1;entryDx=0;entryDy=0;" parent="9vg_7uP11k49zYVhbG7L-56" edge="1">
          <mxGeometry width="160" relative="1" as="geometry">
            <mxPoint y="89" as="sourcePoint" />
            <mxPoint as="targetPoint" />
          </mxGeometry>
        </mxCell>
        <mxCell id="9vg_7uP11k49zYVhbG7L-58" style="edgeStyle=orthogonalEdgeStyle;rounded=0;orthogonalLoop=1;jettySize=auto;html=1;exitX=1;exitY=0;exitDx=0;exitDy=0;entryX=0;entryY=0;entryDx=0;entryDy=0;endArrow=none;endFill=0;" parent="9vg_7uP11k49zYVhbG7L-56" edge="1">
          <mxGeometry relative="1" as="geometry">
            <Array as="points">
              <mxPoint x="2" y="89" />
              <mxPoint x="2" y="89" />
            </Array>
          </mxGeometry>
        </mxCell>
        <mxCell id="9vg_7uP11k49zYVhbG7L-59" value="&lt;b&gt;CategoryReport&lt;/b&gt;" style="swimlane;fontStyle=0;childLayout=stackLayout;horizontal=1;startSize=26;fillColor=none;horizontalStack=0;resizeParent=1;resizeParentMax=0;resizeLast=0;collapsible=1;marginBottom=0;whiteSpace=wrap;html=1;" parent="WIyWlLk6GJQsqaUBKTNV-1" vertex="1">
          <mxGeometry x="150" y="302" width="150" height="30" as="geometry" />
        </mxCell>
        <mxCell id="9vg_7uP11k49zYVhbG7L-63" value="" style="endArrow=none;endFill=0;endSize=12;html=1;rounded=0;exitX=0;exitY=0;exitDx=0;exitDy=0;" parent="WIyWlLk6GJQsqaUBKTNV-1" source="9vg_7uP11k49zYVhbG7L-48" edge="1">
          <mxGeometry width="160" relative="1" as="geometry">
            <mxPoint x="110" y="360" as="sourcePoint" />
            <mxPoint x="110" y="320" as="targetPoint" />
          </mxGeometry>
        </mxCell>
        <mxCell id="9vg_7uP11k49zYVhbG7L-65" value="" style="endArrow=none;endFill=0;endSize=12;html=1;rounded=0;" parent="WIyWlLk6GJQsqaUBKTNV-1" edge="1">
          <mxGeometry width="160" relative="1" as="geometry">
            <mxPoint x="150" y="320" as="sourcePoint" />
            <mxPoint x="110" y="320" as="targetPoint" />
          </mxGeometry>
        </mxCell>
        <mxCell id="9vg_7uP11k49zYVhbG7L-66" value="" style="endArrow=none;endFill=0;endSize=12;html=1;rounded=0;exitX=0;exitY=0;exitDx=0;exitDy=0;" parent="WIyWlLk6GJQsqaUBKTNV-1" source="9vg_7uP11k49zYVhbG7L-52" edge="1">
          <mxGeometry width="160" relative="1" as="geometry">
            <mxPoint x="120" y="370" as="sourcePoint" />
            <mxPoint x="110" y="320" as="targetPoint" />
          </mxGeometry>
        </mxCell>
        <mxCell id="9vg_7uP11k49zYVhbG7L-68" value="StockItemsReport" style="swimlane;fontStyle=1;align=center;verticalAlign=top;childLayout=stackLayout;horizontal=1;startSize=26;horizontalStack=0;resizeParent=1;resizeParentMax=0;resizeLast=0;collapsible=1;marginBottom=0;whiteSpace=wrap;html=1;" parent="WIyWlLk6GJQsqaUBKTNV-1" vertex="1">
          <mxGeometry x="314" y="320" width="140" height="30" as="geometry" />
        </mxCell>
        <mxCell id="9vg_7uP11k49zYVhbG7L-69" value="DamagedReport" style="swimlane;fontStyle=1;align=center;verticalAlign=top;childLayout=stackLayout;horizontal=1;startSize=26;horizontalStack=0;resizeParent=1;resizeParentMax=0;resizeLast=0;collapsible=1;marginBottom=0;whiteSpace=wrap;html=1;" parent="WIyWlLk6GJQsqaUBKTNV-1" vertex="1">
          <mxGeometry x="480" y="320" width="120" height="30" as="geometry" />
        </mxCell>
        <mxCell id="9vg_7uP11k49zYVhbG7L-70" value="" style="line;strokeWidth=1;fillColor=none;align=left;verticalAlign=middle;spacingTop=-1;spacingLeft=3;spacingRight=3;rotatable=0;labelPosition=right;points=[];portConstraint=eastwest;strokeColor=inherit;" parent="WIyWlLk6GJQsqaUBKTNV-1" vertex="1">
          <mxGeometry x="450" y="316" width="30" height="8" as="geometry" />
        </mxCell>
        <mxCell id="9vg_7uP11k49zYVhbG7L-76" style="edgeStyle=orthogonalEdgeStyle;rounded=0;orthogonalLoop=1;jettySize=auto;html=1;startArrow=none;startFill=0;endArrow=none;endFill=0;endSize=11;" parent="WIyWlLk6GJQsqaUBKTNV-1" edge="1">
          <mxGeometry relative="1" as="geometry">
            <mxPoint x="20" y="239" as="sourcePoint" />
            <mxPoint x="570" y="850" as="targetPoint" />
            <Array as="points">
              <mxPoint x="20" y="1030" />
              <mxPoint x="570" y="1030" />
            </Array>
          </mxGeometry>
        </mxCell>
        <mxCell id="9vg_7uP11k49zYVhbG7L-83" value="*" style="edgeLabel;html=1;align=center;verticalAlign=middle;resizable=0;points=[];" parent="9vg_7uP11k49zYVhbG7L-76" vertex="1" connectable="0">
          <mxGeometry x="0.9863" relative="1" as="geometry">
            <mxPoint x="4" y="-1" as="offset" />
          </mxGeometry>
        </mxCell>
        <mxCell id="9vg_7uP11k49zYVhbG7L-79" value="" style="endArrow=none;html=1;endSize=12;startArrow=diamondThin;startSize=14;startFill=0;edgeStyle=orthogonalEdgeStyle;rounded=0;endFill=0;exitX=0;exitY=0.5;exitDx=0;exitDy=0;" parent="WIyWlLk6GJQsqaUBKTNV-1" source="9vg_7uP11k49zYVhbG7L-32" edge="1">
          <mxGeometry x="-0.25" y="50" relative="1" as="geometry">
            <mxPoint x="30" y="230" as="sourcePoint" />
            <mxPoint x="20" y="550" as="targetPoint" />
            <Array as="points">
              <mxPoint x="20" y="215" />
            </Array>
            <mxPoint as="offset" />
          </mxGeometry>
        </mxCell>
        <mxCell id="9vg_7uP11k49zYVhbG7L-82" value="0..1" style="edgeLabel;html=1;align=center;verticalAlign=middle;resizable=0;points=[];" parent="9vg_7uP11k49zYVhbG7L-79" vertex="1" connectable="0">
          <mxGeometry x="-0.8652" y="1" relative="1" as="geometry">
            <mxPoint x="9" y="19" as="offset" />
          </mxGeometry>
        </mxCell>
        <mxCell id="9vg_7uP11k49zYVhbG7L-84" value="&lt;font style=&quot;font-size: 11px;&quot;&gt;StockManagmentFacade&lt;/font&gt;" style="swimlane;fontStyle=1;align=center;verticalAlign=top;childLayout=stackLayout;horizontal=1;startSize=26;horizontalStack=0;resizeParent=1;resizeParentMax=0;resizeLast=0;collapsible=1;marginBottom=0;whiteSpace=wrap;html=1;" parent="WIyWlLk6GJQsqaUBKTNV-1" vertex="1">
          <mxGeometry x="370" y="390" width="160" height="30" as="geometry" />
        </mxCell>
        <mxCell id="ZMS9l-92kmiruMKfV18j-0" value="" style="endArrow=diamondThin;endFill=1;endSize=24;html=1;rounded=0;exitX=0.533;exitY=-0.007;exitDx=0;exitDy=0;exitPerimeter=0;entryX=0.25;entryY=1;entryDx=0;entryDy=0;" edge="1" parent="WIyWlLk6GJQsqaUBKTNV-1" source="VhmcF22pDkBif8iSbu52-0" target="9vg_7uP11k49zYVhbG7L-84">
          <mxGeometry width="160" relative="1" as="geometry">
            <mxPoint x="480" y="580" as="sourcePoint" />
            <mxPoint x="410" y="420" as="targetPoint" />
          </mxGeometry>
        </mxCell>
        <mxCell id="ZMS9l-92kmiruMKfV18j-1" value="*" style="edgeLabel;html=1;align=center;verticalAlign=middle;resizable=0;points=[];" vertex="1" connectable="0" parent="ZMS9l-92kmiruMKfV18j-0">
          <mxGeometry x="-0.5022" y="-3" relative="1" as="geometry">
            <mxPoint y="8" as="offset" />
          </mxGeometry>
        </mxCell>
        <mxCell id="ZMS9l-92kmiruMKfV18j-2" value="&lt;font style=&quot;font-size: 8px;&quot;&gt;Controller&lt;/font&gt;" style="edgeLabel;html=1;align=center;verticalAlign=middle;resizable=0;points=[];" vertex="1" connectable="0" parent="ZMS9l-92kmiruMKfV18j-0">
          <mxGeometry x="-0.212" y="-1" relative="1" as="geometry">
            <mxPoint as="offset" />
          </mxGeometry>
        </mxCell>
        <mxCell id="ZMS9l-92kmiruMKfV18j-3" value="" style="endArrow=diamondThin;endFill=1;endSize=24;html=1;rounded=0;exitX=0.149;exitY=-0.004;exitDx=0;exitDy=0;exitPerimeter=0;entryX=1;entryY=1;entryDx=0;entryDy=0;" edge="1" parent="WIyWlLk6GJQsqaUBKTNV-1" source="uNGU3R2hRm0RpNUcbInG-1" target="9vg_7uP11k49zYVhbG7L-84">
          <mxGeometry width="160" relative="1" as="geometry">
            <mxPoint x="513" y="490" as="sourcePoint" />
            <mxPoint x="520" y="420" as="targetPoint" />
          </mxGeometry>
        </mxCell>
        <mxCell id="ZMS9l-92kmiruMKfV18j-4" value="*" style="edgeLabel;html=1;align=center;verticalAlign=middle;resizable=0;points=[];" vertex="1" connectable="0" parent="ZMS9l-92kmiruMKfV18j-3">
          <mxGeometry x="-0.5022" y="-3" relative="1" as="geometry">
            <mxPoint y="55" as="offset" />
          </mxGeometry>
        </mxCell>
        <mxCell id="ZMS9l-92kmiruMKfV18j-5" value="&lt;font style=&quot;font-size: 8px;&quot;&gt;Controller&lt;/font&gt;" style="edgeLabel;html=1;align=center;verticalAlign=middle;resizable=0;points=[];" vertex="1" connectable="0" parent="ZMS9l-92kmiruMKfV18j-3">
          <mxGeometry x="-0.212" y="-1" relative="1" as="geometry">
            <mxPoint as="offset" />
          </mxGeometry>
        </mxCell>
      </root>
    </mxGraphModel>
  </diagram>
</mxfile>
